<svg width="368" height="298" viewBox="0 0 368 298" fill="none" xmlns="http://www.w3.org/2000/svg">
<path d="M52.9935 215.743V251.652C52.9935 253.36 53.6703 254.996 54.8775 256.203L76.7973 278.123C78.0045 279.33 79.6397 280.006 81.348 280.006H117.257C137.289 290.231 159.966 296 184 296C208.034 296 230.715 290.231 250.743 280.006H286.652C288.36 280.006 289.996 279.33 291.199 278.123L313.123 256.203C314.326 254.996 315.006 253.36 315.006 251.652V215.743C325.231 195.715 331 173.027 331 149C331 124.973 325.235 102.285 315.006 82.2566V46.3444C315.006 44.6397 314.326 43.0045 313.123 41.7973L291.199 19.8775C289.992 18.6703 288.36 17.9935 286.652 17.9935H250.743C230.715 7.76894 208.034 2 184 2C159.966 2 137.289 7.76894 117.257 17.9935H81.348C79.6433 17.9935 78.0045 18.6703 76.7973 19.8775L54.8775 41.7973C53.6703 43.0045 52.9935 44.6397 52.9935 46.3444V82.2566C42.7726 102.285 37 124.969 37 149C37 173.031 42.7726 195.715 52.9935 215.743Z" fill="#FFB26E"/>
<mask id="mask0_6437_650" style="mask-type:alpha" maskUnits="userSpaceOnUse" x="37" y="2" width="294" height="294">
<path d="M52.9935 215.743V251.652C52.9935 253.36 53.6703 254.996 54.8775 256.203L76.7973 278.123C78.0045 279.33 79.6397 280.006 81.348 280.006H117.257C137.289 290.231 159.966 296 184 296C208.034 296 230.715 290.231 250.743 280.006H286.652C288.36 280.006 289.996 279.33 291.199 278.123L313.123 256.203C314.326 254.996 315.006 253.36 315.006 251.652V215.743C325.231 195.715 331 173.027 331 149C331 124.973 325.235 102.285 315.006 82.2566V46.3444C315.006 44.6397 314.326 43.0045 313.123 41.7973L291.199 19.8775C289.992 18.6703 288.36 17.9935 286.652 17.9935H250.743C230.715 7.76894 208.034 2 184 2C159.966 2 137.289 7.76894 117.257 17.9935H81.348C79.6433 17.9935 78.0045 18.6703 76.7973 19.8775L54.8775 41.7973C53.6703 43.0045 52.9935 44.6397 52.9935 46.3444V82.2566C42.7726 102.285 37 124.969 37 149C37 173.031 42.7726 195.715 52.9935 215.743Z" fill="#B880FF"/>
</mask>
<g mask="url(#mask0_6437_650)">
<path d="M327.046 111.372C314.363 105.859 300.846 88.538 308.459 87.1735C315.047 85.9956 322.378 91.8779 330.122 94.9032" fill="#FFB26E"/>
<path d="M327.046 111.372C314.363 105.859 300.846 88.538 308.459 87.1735C315.047 85.9956 322.378 91.8779 330.122 94.9032" stroke="black" stroke-width="1.2" stroke-linecap="round" stroke-linejoin="round"/>
<path d="M303.293 72.0759C314.436 85.6295 317.304 123.824 320.849 129.121C324.393 134.419 334.772 133.68 334.772 133.68C334.772 133.68 331.988 97.9538 328.275 86.6464C324.562 75.3354 321.017 63.6877 321.017 63.6877L303.293 72.0796V72.0759Z" fill="white" stroke="black" stroke-width="1.2" stroke-linecap="round" stroke-linejoin="round"/>
<path d="M315.899 40.3012C310.836 29.1291 301.475 27.0915 295.852 30.5668C279.683 40.5536 269.524 44.8593 269.524 44.8593L293.573 83.0067C301.852 77.7902 312.387 71.1469 314.985 69.508C320.139 66.2596 321.042 51.6415 315.899 40.2975V40.3012Z" fill="#FFB26E" stroke="black" stroke-width="1.2" stroke-linecap="round" stroke-linejoin="round"/>
<path d="M290.877 58.0507C284.238 47.5152 274.675 41.6109 269.524 44.8593C250.509 52.4903 235.997 50.6026 235.997 50.6026L274.891 111.369C274.891 111.369 278.758 100.014 284.036 92.8911C288.905 86.3174 292.147 84.1188 293.573 83.0031C298.369 79.2498 297.52 68.5826 290.881 58.047L290.877 58.0507Z" fill="white" stroke="black" stroke-width="1.2" stroke-linecap="round" stroke-linejoin="round"/>
<path d="M271.296 115.434C279.859 110.036 277.854 91.4702 266.818 73.9661C255.782 56.4621 239.895 46.6484 231.333 52.0467C222.77 57.4449 224.775 76.0109 235.811 93.5149C246.847 111.019 262.734 120.833 271.296 115.434Z" fill="#FFB26E"/>
<path d="M240.427 51.038C226.255 52.1354 229.043 76.1916 238.031 90.3706C247.019 104.55 261.326 117.507 268.291 116.472C275.257 115.436 249 125 229.548 81.185C217.5 45.5 240.427 51.0343 240.427 51.0343V51.038Z" fill="white"/>
<path d="M271.296 115.434C279.859 110.036 277.854 91.4702 266.818 73.9661C255.782 56.4621 239.895 46.6484 231.333 52.0467C222.77 57.4449 224.775 76.0109 235.811 93.5149C246.847 111.019 262.734 120.833 271.296 115.434Z" stroke="black" stroke-width="1.2" stroke-linecap="round" stroke-linejoin="round"/>
<path d="M326.109 76.0232C315.358 76.5975 310.807 91.3985 311.403 97.1967C312.018 103.203 314.546 103.452 314.546 103.452C314.546 103.452 317.813 93.5495 321.866 89.3353C325.919 85.1211 328.619 84.9894 328.619 84.9894" fill="#FFB26E"/>
<path d="M326.109 76.0232C315.358 76.5975 310.807 91.3985 311.403 97.1967C312.018 103.203 314.546 103.452 314.546 103.452C314.546 103.452 317.813 93.5495 321.866 89.3353C325.919 85.1211 328.619 84.9894 328.619 84.9894" stroke="black" stroke-width="1.2" stroke-linecap="round" stroke-linejoin="round"/>
<path d="M327.576 84.1299C318.149 86.0394 311.904 98.6089 312.918 104.349C313.931 110.088 316.195 109.883 316.195 109.883C316.195 109.883 320.175 100.548 324.229 96.3299C328.282 92.1157 330.982 91.984 330.982 91.984" fill="#FFB26E"/>
<path d="M327.576 84.1299C318.149 86.0394 311.904 98.6089 312.918 104.349C313.931 110.088 316.195 109.883 316.195 109.883C316.195 109.883 320.175 100.548 324.229 96.3299C328.282 92.1157 330.982 91.984 330.982 91.984" stroke="black" stroke-width="1.2" stroke-linecap="round" stroke-linejoin="round"/>
<path d="M330.978 91.9875C321.551 93.8971 314.546 101.459 314.633 111.486C314.685 117.313 317.911 117.02 317.911 117.02C317.911 117.02 322.572 111.372 326.621 107.154C330.671 102.936 335.364 101.331 335.364 101.331" fill="#FFB26E"/>
<path d="M330.978 91.9875C321.551 93.8971 314.546 101.459 314.633 111.486C314.685 117.313 317.911 117.02 317.911 117.02C317.911 117.02 322.572 111.372 326.621 107.154C330.671 102.936 335.364 101.331 335.364 101.331" stroke="black" stroke-width="1.2" stroke-linecap="round" stroke-linejoin="round"/>
<path d="M335.368 97.01C323.106 101.751 315.833 112.016 316.737 119.354C317.666 126.901 326.124 108.672 335.368 109.115" fill="#FFB26E"/>
<path d="M335.368 97.01C323.106 101.751 315.833 112.016 316.737 119.354C317.666 126.901 326.124 108.672 335.368 109.115" stroke="black" stroke-width="1.2" stroke-linecap="round" stroke-linejoin="round"/>
<path d="M254.628 59.3237C247.652 70.8726 253.436 82.0995 262.296 86.321C268.786 89.4122 273.618 87.7294 273.618 87.7294C273.618 87.7294 269.349 76.0928 263.602 69.2666C257.851 62.4405 254.628 59.3274 254.628 59.3274V59.3237Z" fill="black"/>
<path d="M248.867 76.3086L224.061 87.7294" stroke="black" stroke-width="1.2" stroke-linecap="round" stroke-linejoin="round"/>
<path d="M251.53 85.3076L230.814 103.675" stroke="black" stroke-width="1.2" stroke-linecap="round" stroke-linejoin="round"/>
<path d="M259.161 91.1572L246.419 109.825" stroke="black" stroke-width="1.2" stroke-linecap="round" stroke-linejoin="round"/>
<path d="M276.464 169.939H111.55V297.888H276.464V169.939Z" fill="white"/>
<path d="M240.731 212.06C260.438 209.953 262.929 232.652 263.507 250.917C264.081 269.183 263.507 297.888 263.507 297.888H276.468L275.849 189.24L240.735 212.06H240.731Z" fill="#FFB26E"/>
<path d="M111.55 207.677C122.755 202.3 126.11 193.831 129.815 190.831C133.521 187.832 216.291 184.345 216.291 184.345L120.22 182.696L111.55 207.681V207.677Z" fill="#FFB26E"/>
<path d="M276.464 169.939H111.55V297.888H276.464V169.939Z" stroke="black" stroke-width="1.2" stroke-linecap="round" stroke-linejoin="round"/>
<path d="M300.297 163.044C300.297 153.13 292.516 144.233 282.727 143.736L138.902 141.267V142.287C129.373 143.055 121.877 151.027 121.877 160.754C121.877 170.989 130.174 179.286 140.409 179.286C150.645 179.286 158.942 170.989 158.942 160.754C158.942 157.794 158.247 154.999 157.014 152.519L265.383 154.381C264.209 156.594 263.474 159.078 263.284 161.708L239.001 169.413L256.82 207.469L292.154 178.393C297.067 175.061 300.297 169.431 300.297 163.044V163.044Z" fill="#FFB26E" stroke="black" stroke-width="1.2" stroke-linecap="round" stroke-linejoin="round"/>
<path d="M245.933 173.908L102.108 171.439V172.46C92.5786 173.228 85.083 181.199 85.083 190.926C85.083 201.162 93.3797 209.459 103.615 209.459C113.851 209.459 122.148 201.162 122.148 190.926C122.148 187.967 121.453 185.172 120.22 182.692L228.589 184.554C227.218 187.14 226.438 190.089 226.438 193.22C226.438 203.456 234.735 211.752 244.971 211.752C255.206 211.752 263.503 203.456 263.503 193.22C263.503 182.984 255.722 174.41 245.933 173.912V173.908Z" fill="white"/>
<path d="M114.637 172.745L102.108 177.651L248.929 174.366L114.637 172.745Z" fill="#FFB26E"/>
<path d="M245.933 173.908L102.108 171.439V172.46C92.5786 173.228 85.083 181.199 85.083 190.926C85.083 201.162 93.3797 209.459 103.615 209.459C113.851 209.459 122.148 201.162 122.148 190.926C122.148 187.967 121.453 185.172 120.22 182.692L228.589 184.554C227.218 187.14 226.438 190.089 226.438 193.22C226.438 203.456 234.735 211.752 244.971 211.752C255.206 211.752 263.503 203.456 263.503 193.22C263.503 182.984 255.722 174.41 245.933 173.912V173.908Z" stroke="black" stroke-width="1.2" stroke-linecap="round" stroke-linejoin="round"/>
<path d="M83.4004 161.38L265.171 163.852L300.111 134.283H125.495L83.4004 161.38Z" fill="white"/>
<path d="M106.396 154.411H148.015L165.658 152.516L167.337 154.411H169.905H179.932L194.803 153.156L195.179 154.411H205.21H209.38H218.676L230.382 153.156L231.245 154.411H239.001H244.309L259.988 154.283L279.42 151.795L292.289 140.905L119.854 143.378L106.396 154.411Z" fill="#FFB26E" stroke="#FFB26E" stroke-width="1.2" stroke-linecap="round" stroke-linejoin="round"/>
<path d="M83.4004 161.38L265.171 163.852L300.111 134.283H125.495L83.4004 161.38Z" stroke="black" stroke-width="1.2" stroke-linecap="round" stroke-linejoin="round"/>
<path d="M265.171 163.852V174.794L300.11 145.225V134.283L265.171 163.852Z" fill="#FFB26E" stroke="black" stroke-width="1.2" stroke-linecap="round" stroke-linejoin="round"/>
<path d="M83.4004 161.379V172.321L265.171 174.794V163.852L83.4004 161.379Z" fill="white" stroke="black" stroke-width="1.2" stroke-linecap="round" stroke-linejoin="round"/>
<path d="M228.589 184.554C228.589 184.554 233.755 175.339 245.139 179.838C253.769 183.251 252.993 193.059 248.051 195.997C243.303 198.821 239.227 195.708 239.227 195.708" stroke="black" stroke-width="1.2" stroke-linecap="round" stroke-linejoin="round"/>
<path d="M135.855 203.558C138.346 203.558 140.373 205.581 140.373 208.076V297.891H131.341V208.076C131.341 205.585 133.364 203.558 135.858 203.558H135.855Z" fill="#FFB26E" stroke="black" stroke-width="1.2" stroke-linecap="round" stroke-linejoin="round"/>
<path d="M162.439 203.558C164.93 203.558 166.957 205.581 166.957 208.076V297.891H157.925V208.076C157.925 205.585 159.948 203.558 162.442 203.558H162.439Z" fill="#FFB26E" stroke="black" stroke-width="1.2" stroke-linecap="round" stroke-linejoin="round"/>
<path d="M189.023 203.558C191.514 203.558 193.541 205.581 193.541 208.076V297.891H184.509V208.076C184.509 205.585 186.532 203.558 189.026 203.558H189.023Z" fill="#FFB26E" stroke="black" stroke-width="1.2" stroke-linecap="round" stroke-linejoin="round"/>
<path d="M215.607 203.558C218.098 203.558 220.125 205.581 220.125 208.076V297.891H211.093V208.076C211.093 205.585 213.116 203.558 215.61 203.558H215.607Z" fill="#FFB26E" stroke="black" stroke-width="1.2" stroke-linecap="round" stroke-linejoin="round"/>
<path d="M139.626 205.588C131.845 205.998 131.341 252.263 131.341 252.263V208.072C131.341 208.072 131.959 204.374 134.549 203.554C137.139 202.738 139.626 205.585 139.626 205.585V205.588Z" fill="black"/>
<path d="M165.658 204.908C161.36 205.786 157.921 249.728 157.921 249.728V208.076C157.921 208.076 158.912 204.213 161.788 203.613C164.667 203.009 165.654 204.912 165.654 204.912L165.658 204.908Z" fill="black"/>
<path d="M192.121 204.795C187.3 206.049 184.505 264.551 184.505 264.551V208.072C184.505 208.072 185.226 202.995 188.313 203.617C191.401 204.239 192.121 204.795 192.121 204.795V204.795Z" fill="black"/>
<path d="M251.57 174.366C251.57 174.366 257.928 178.456 259.885 181.924L261.842 185.392L298.322 154.539L294.941 149.6L265.171 174.794L251.57 174.366V174.366Z" fill="black"/>
<path d="M235.533 115.411L229.709 120.174H235.533V133.328H235.262L223.095 115.411H215.204L209.381 120.174L215.204 141.625V149.644H217.381L218.676 154.41L224.5 149.644V139.635L239.001 154.41L244.825 149.644V115.411H235.533Z" fill="black" stroke="black" stroke-width="1.2" stroke-linecap="round" stroke-linejoin="round"/>
<path d="M139.301 135.728C138.587 134.532 137.629 133.588 136.425 132.904C135.222 132.22 133.883 131.847 132.412 131.792V131.459C133.74 131.192 134.896 130.709 135.891 130.014C136.883 129.319 137.655 128.452 138.207 127.413C138.759 126.378 139.034 125.229 139.034 123.971C139.034 122.233 138.58 120.723 137.673 119.442C136.766 118.162 135.423 117.17 133.645 116.468C131.867 115.766 129.676 115.415 127.068 115.415H112.223L106.399 120.181L112.223 128.705V149.651H126.534L128.934 153.163L136.575 147.347C136.671 147.281 136.758 147.208 136.85 147.138L137.036 146.996C137.775 146.399 138.401 145.723 138.913 144.954C139.89 143.495 140.376 141.827 140.376 139.957C140.376 138.34 140.018 136.936 139.308 135.736L139.301 135.728ZM121.515 122.698H125.458C126.618 122.698 127.576 122.98 128.334 123.543C129.091 124.106 129.471 124.915 129.471 125.976C129.471 126.678 129.296 127.271 128.944 127.757C128.593 128.244 128.107 128.613 127.481 128.869C126.856 129.125 126.139 129.253 125.327 129.253H123.095L121.515 127.241V122.702V122.698ZM127.785 135.22C128.008 135.282 128.224 135.348 128.425 135.436C129.098 135.725 129.621 136.149 129.987 136.705C130.353 137.258 130.536 137.931 130.536 138.724L127.781 135.22H127.785Z" fill="black" stroke="black" stroke-width="1.2" stroke-linecap="round" stroke-linejoin="round"/>
<path d="M166.199 136.866C167.97 136.014 169.378 134.817 170.395 133.248C171.482 131.565 172.027 129.499 172.027 127.048C172.027 124.597 171.496 122.533 170.439 120.796C169.382 119.058 167.897 117.727 165.991 116.801C164.085 115.875 161.861 115.415 159.322 115.415H144.543L138.719 120.181L144.543 124.845V149.651H147.455L148.015 154.418L153.838 149.651L167.341 154.418L173.165 149.651L166.203 136.87L166.199 136.866ZM153.835 122.833H157.113C158.206 122.833 159.139 122.98 159.911 123.276C160.687 123.572 161.283 124.03 161.7 124.648C162.117 125.266 162.325 126.067 162.325 127.048C162.325 128.028 162.117 128.803 161.7 129.403C161.283 130.007 160.687 130.442 159.911 130.717C159.135 130.991 158.203 131.126 157.113 131.126H153.835V122.833V122.833Z" fill="black" stroke="black" stroke-width="1.2" stroke-linecap="round" stroke-linejoin="round"/>
<path d="M211.034 149.644L199.734 115.411H187.029L181.205 120.174L180.668 134.682L175.725 149.644H180.111L179.932 154.41L185.756 149.644L187.735 143.092H191.971L205.21 154.41L211.034 149.644Z" fill="black" stroke="black" stroke-width="1.2" stroke-linecap="round" stroke-linejoin="round"/>
<path d="M278.26 123.342C276.863 120.784 274.876 118.824 272.308 117.456C269.74 116.091 266.693 115.407 263.174 115.407H250.136L244.312 120.174L250.136 133.372V149.644H257.313L258.861 153.156L268.01 151.455L274.532 146.172H274.521C276.047 144.969 277.302 143.487 278.267 141.713C279.661 139.156 280.356 136.094 280.356 132.527C280.356 128.961 279.658 125.899 278.256 123.342H278.26ZM259.428 123.301H262.706C264.487 123.301 265.994 123.576 267.227 124.121C268.46 124.666 269.396 125.61 270.037 126.945C270.677 128.284 270.999 130.142 270.999 132.527C270.999 134.912 270.684 136.774 270.055 138.11C269.426 139.448 268.511 140.389 267.315 140.934C266.115 141.479 264.67 141.753 262.976 141.753H259.431V123.298L259.428 123.301Z" fill="black" stroke="black" stroke-width="1.2" stroke-linecap="round" stroke-linejoin="round"/>
<path d="M130.602 137.667C129.398 136.983 128.059 136.61 126.589 136.555V136.222C127.917 135.955 129.073 135.472 130.068 134.777C131.059 134.082 131.831 133.215 132.383 132.176C132.936 131.141 133.21 129.992 133.21 128.734C133.21 126.996 132.756 125.486 131.849 124.205C130.942 122.925 129.599 121.933 127.821 121.231C126.044 120.529 123.852 120.177 121.244 120.177H106.399V154.414H122.513C124.997 154.414 127.137 153.997 128.934 153.16C130.726 152.322 132.112 151.177 133.089 149.717C134.066 148.258 134.552 146.59 134.552 144.72C134.552 143.103 134.194 141.699 133.484 140.499C132.771 139.302 131.812 138.359 130.609 137.675L130.602 137.667ZM115.691 127.461H119.634C120.794 127.461 121.753 127.743 122.51 128.306C123.267 128.869 123.647 129.678 123.647 130.739C123.647 131.441 123.472 132.034 123.121 132.52C122.769 133.007 122.283 133.376 121.657 133.632C121.032 133.888 120.315 134.016 119.503 134.016H115.691V127.465V127.461ZM123.549 146.11C122.769 146.696 121.599 146.988 120.037 146.988H115.691V139.767H120.172C121.12 139.767 121.932 139.913 122.605 140.202C123.278 140.491 123.801 140.916 124.167 141.472C124.533 142.028 124.719 142.708 124.719 143.509C124.719 144.658 124.328 145.525 123.549 146.11V146.11Z" fill="white" stroke="black" stroke-width="1.2" stroke-linecap="round" stroke-linejoin="round"/>
<path d="M164.571 138.011C165.658 136.328 166.203 134.261 166.203 131.81C166.203 129.36 165.672 127.296 164.615 125.559C163.558 123.821 162.073 122.489 160.171 121.564C158.265 120.638 156.04 120.177 153.502 120.177H138.723V154.414H148.018V143.114H151.234L157.244 154.414H167.341L160.379 141.633C162.15 140.78 163.558 139.584 164.575 138.015L164.571 138.011ZM148.014 127.596H151.292C152.386 127.596 153.319 127.743 154.091 128.039C154.866 128.335 155.462 128.792 155.879 129.411C156.297 130.029 156.505 130.83 156.505 131.81C156.505 132.791 156.297 133.566 155.879 134.166C155.462 134.77 154.866 135.205 154.091 135.48C153.315 135.754 152.382 135.889 151.292 135.889H148.014V127.596V127.596Z" fill="white" stroke="black" stroke-width="1.2" stroke-linecap="round" stroke-linejoin="round"/>
<path d="M181.205 120.174L169.905 154.41H179.936L181.915 147.859H193.204L195.183 154.41H205.214L193.914 120.174H181.209H181.205ZM184.011 140.904L187.424 129.604H187.691L191.104 140.904H184.015H184.011Z" fill="white" stroke="black" stroke-width="1.2" stroke-linecap="round" stroke-linejoin="round"/>
<path d="M229.709 138.095H229.438L217.271 120.174H209.381V154.41H218.676V136.423H218.874L231.246 154.41H239.001V120.174H229.709V138.095Z" fill="white" stroke="black" stroke-width="1.2" stroke-linecap="round" stroke-linejoin="round"/>
<path d="M272.436 128.105C271.039 125.548 269.052 123.587 266.484 122.219C263.916 120.854 260.869 120.17 257.35 120.17H244.312V154.407H257.485C260.964 154.407 263.979 153.723 266.528 152.358C269.082 150.994 271.053 149.033 272.447 146.472C273.841 143.915 274.536 140.853 274.536 137.287C274.536 133.72 273.837 130.658 272.436 128.101V128.105ZM264.227 142.873C263.598 144.212 262.684 145.152 261.487 145.697C260.287 146.242 258.843 146.516 257.149 146.516H253.604V128.061H256.882C258.663 128.061 260.17 128.335 261.403 128.88C262.636 129.425 263.573 130.369 264.213 131.704C264.853 133.04 265.175 134.902 265.175 137.287C265.175 139.672 264.86 141.534 264.231 142.869L264.227 142.873Z" fill="white" stroke="black" stroke-width="1.2" stroke-linecap="round" stroke-linejoin="round"/>
<path d="M209.805 191.988C197.158 197.961 195.41 206.379 201.146 231.119C206.882 255.856 223.537 254.048 231.83 250.405C243.61 245.232 251.248 238.969 243.632 219.007C236.012 199.048 232.99 195.481 226.376 191.303C222.023 188.556 214.096 189.957 209.808 191.984L209.805 191.988Z" fill="black"/>
<path d="M217.743 189.778C199.994 202.607 203.677 233.585 205.759 239.734C207.84 245.883 211.649 249.384 211.649 249.384C211.649 249.384 198.5 242 198 209C197.734 191.476 217.747 189.782 217.747 189.782L217.743 189.778Z" fill="#FFB26E"/>
<path d="M209.805 191.988C197.158 197.961 195.41 206.379 201.146 231.119C206.882 255.856 223.537 254.048 231.83 250.405C243.61 245.232 251.248 238.969 243.632 219.007C236.012 199.048 232.99 195.481 226.376 191.303C222.023 188.556 214.096 189.957 209.808 191.984L209.805 191.988Z" stroke="black" stroke-width="1.2" stroke-linecap="round" stroke-linejoin="round"/>
<path d="M252.51 286.818C252.51 286.818 240.007 251.067 244.781 250.42C249.555 249.772 251.409 257.202 260.112 268.838C268.815 280.479 281.216 289.65 281.216 289.65" fill="#FFB26E"/>
<path d="M252.51 286.818C252.51 286.818 240.007 251.067 244.781 250.42C249.555 249.772 251.409 257.202 260.112 268.838C268.815 280.479 281.216 289.65 281.216 289.65" stroke="black" stroke-width="1.2" stroke-linecap="round" stroke-linejoin="round"/>
<path d="M207.01 236.983C207.072 226.832 229.248 217.898 239.985 223.397" stroke="#FFB26E" stroke-width="1.2" stroke-linecap="round" stroke-linejoin="round"/>
<path d="M219.177 246.74L243.006 303.983L261.784 300.968L240.705 238.3C237.124 228.24 214.791 237.013 219.177 246.74V246.74Z" fill="white"/>
<path d="M229.947 234.205C241.359 250.579 256.831 301.762 256.831 301.762L261.78 300.968L240.096 236.54L235.973 233.963L229.947 234.205Z" fill="#FFB26E"/>
<path d="M219.177 246.74L243.006 303.983L261.784 300.968L240.705 238.3C237.124 228.24 214.791 237.013 219.177 246.74V246.74Z" stroke="black" stroke-width="1.2" stroke-linecap="round" stroke-linejoin="round"/>
<path d="M223.344 256.748C223.344 256.748 225.005 253.313 231.831 250.408C238.657 247.504 244.371 249.201 244.371 249.201L246.822 256.485C246.822 256.485 241.814 255.263 235.112 257.78C228.407 260.296 226.391 264.064 226.391 264.064L223.347 256.752L223.344 256.748Z" fill="#FFB26E" stroke="black" stroke-width="1.2" stroke-linecap="round" stroke-linejoin="round"/>
<path d="M229.785 282.41C229.785 282.41 218.438 282.308 219.93 268.758C221.423 255.208 228.845 248.653 230.993 248.861C233.791 249.132 232.573 254.52 230.385 260.168C228.198 265.817 228.062 270.682 228.827 273.177C229.591 275.672 229.789 282.41 229.789 282.41H229.785Z" fill="#FFB26E"/>
<path d="M232.16 249.52C226.014 253.576 218.555 269.105 219.938 273.323C221.32 277.541 217.048 265.828 225.147 253.756C230.235 246.172 232.163 249.52 232.163 249.52H232.16Z" fill="white"/>
<path d="M229.785 282.41C229.785 282.41 218.438 282.308 219.93 268.758C221.423 255.208 228.845 248.653 230.993 248.861C233.791 249.132 232.573 254.52 230.385 260.168C228.198 265.817 228.062 270.682 228.827 273.177C229.591 275.672 229.789 282.41 229.789 282.41H229.785Z" stroke="black" stroke-width="1.2" stroke-linecap="round" stroke-linejoin="round"/>
<path d="M232.405 291.526C232.405 291.526 223.94 289.862 226.907 276.272C229.877 262.682 235.277 256.221 237.413 256.071C239.89 255.899 239.948 260.205 238.836 264.664C237.724 269.124 234.391 280.018 234.461 282.736C234.53 285.454 232.405 291.526 232.405 291.526V291.526Z" fill="#FFB26E"/>
<path d="M239.012 257.923C233.864 260.245 224.84 282.484 226.921 285.995C229.003 289.507 222.799 281.693 229.976 266.201C237.157 250.709 239.012 257.923 239.012 257.923V257.923Z" fill="white"/>
<path d="M232.405 291.526C232.405 291.526 223.94 289.862 226.907 276.272C229.877 262.682 235.277 256.221 237.413 256.071C239.89 255.899 239.948 260.205 238.836 264.664C237.724 269.124 234.391 280.018 234.461 282.736C234.53 285.454 232.405 291.526 232.405 291.526V291.526Z" stroke="black" stroke-width="1.2" stroke-linecap="round" stroke-linejoin="round"/>
<path d="M237.654 300.086C237.654 300.086 229.189 298.422 232.156 284.832C235.127 271.242 240.526 264.781 242.662 264.631C245.139 264.46 245.198 268.765 244.086 273.224C242.973 277.684 239.641 288.578 239.71 291.296C239.78 294.014 237.654 300.086 237.654 300.086V300.086Z" fill="#FFB26E"/>
<path d="M244.781 266.234C236.224 273.323 232.811 287.166 232.705 290.626C232.599 294.087 233.283 296.864 233.283 296.864C233.283 296.864 228.531 290.718 235.207 274.805C241.883 258.888 244.781 266.234 244.781 266.234V266.234Z" fill="white"/>
<path d="M237.654 300.086C237.654 300.086 229.189 298.422 232.156 284.832C235.127 271.242 240.526 264.781 242.662 264.631C245.139 264.46 245.198 268.765 244.086 273.224C242.973 277.684 239.641 288.578 239.71 291.296C239.78 294.014 237.654 300.086 237.654 300.086V300.086Z" stroke="black" stroke-width="1.2" stroke-linecap="round" stroke-linejoin="round"/>
<path d="M243.087 304.688C243.087 304.688 233.894 308.208 236.861 294.618C239.831 281.027 245.231 274.567 247.367 274.417C249.844 274.245 249.902 278.551 248.79 283.01C247.678 287.469 244.927 294.632 244.996 297.354C245.066 300.072 243.083 304.688 243.083 304.688H243.087Z" fill="#FFB26E"/>
<path d="M249.485 276.364C243.99 278.727 236.041 294.933 236.301 298.393C236.561 301.854 235.95 286.387 243.694 277.549C248.212 272.395 249.485 276.364 249.485 276.364V276.364Z" fill="white"/>
<path d="M243.087 304.688C243.087 304.688 233.894 308.208 236.861 294.618C239.831 281.027 245.231 274.567 247.367 274.417C249.844 274.245 249.902 278.551 248.79 283.01C247.678 287.469 244.927 294.632 244.996 297.354C245.066 300.072 243.083 304.688 243.083 304.688H243.087Z" stroke="black" stroke-width="1.2" stroke-linecap="round" stroke-linejoin="round"/>
<path d="M202.609 56.6677C202.108 36.9282 183.254 21.3956 160.493 21.9736C137.735 22.5516 119.689 39.0207 120.191 58.7602C120.549 72.8771 130.298 84.843 144.148 90.301H144.137L150.232 104.239L164.754 93.3921L164.473 93.3482C186.199 91.8191 203.096 75.7744 202.609 56.6677V56.6677Z" fill="#FFB26E" stroke="black" stroke-width="1.2" stroke-linecap="round" stroke-linejoin="round"/>
<path d="M203.187 50.3535C202.686 30.614 183.832 15.0814 161.071 15.6594C138.313 16.2374 120.268 32.7065 120.769 52.446C121.127 66.5629 130.876 78.5288 144.726 83.9868H144.715L150.81 97.9244L165.333 87.0779L165.051 87.034C186.777 85.5049 203.674 69.4602 203.187 50.3535V50.3535Z" fill="white" stroke="black" stroke-width="1.2" stroke-linecap="round" stroke-linejoin="round"/>
<path d="M144.73 83.9834L144.141 90.2974L150.235 104.239L150.81 97.9247L144.73 83.9834Z" fill="#FFB26E" stroke="black" stroke-width="1.2" stroke-linecap="round" stroke-linejoin="round"/>
<path d="M165.051 87.0344L164.755 93.3923L150.235 104.239L150.81 97.9248L165.051 87.0344Z" fill="#FFB26E" stroke="black" stroke-width="1.2" stroke-linecap="round" stroke-linejoin="round"/>
<path d="M142.041 57.681C145.651 57.681 148.578 54.7542 148.578 51.1438C148.578 47.5335 145.651 44.6067 142.041 44.6067C138.431 44.6067 135.504 47.5335 135.504 51.1438C135.504 54.7542 138.431 57.681 142.041 57.681Z" fill="#FFB26E"/>
<path d="M162.044 58.3797C165.654 58.3797 168.581 55.4529 168.581 51.8426C168.581 48.2322 165.654 45.3054 162.044 45.3054C158.433 45.3054 155.507 48.2322 155.507 51.8426C155.507 55.4529 158.433 58.3797 162.044 58.3797Z" fill="#FFB26E"/>
<path d="M182.043 59.0785C185.653 59.0785 188.58 56.1517 188.58 52.5413C188.58 48.9309 185.653 46.0042 182.043 46.0042C178.433 46.0042 175.506 48.9309 175.506 52.5413C175.506 56.1517 178.433 59.0785 182.043 59.0785Z" fill="#FFB26E"/>
<path d="M137.106 66.552L135.925 66.7056C131.22 55.4092 115.066 49.911 98.388 54.3666C85.7893 57.7321 76.289 65.8716 73.0588 74.8853L71.6943 75.0646L71.8663 81.1042C71.8516 81.6932 71.8736 82.2858 71.9175 82.8748V83.054H71.9321C72.0199 84.071 72.1845 85.0806 72.4516 86.0866C75.8647 98.861 93.0105 105.376 110.745 100.639C115.186 99.4536 119.243 97.6721 122.777 95.4698L135.306 103.595L134.787 83.054C136.162 80.4128 136.996 77.6545 137.212 74.8853V74.8597C137.296 73.7586 137.102 66.5593 137.102 66.5593L137.106 66.552Z" fill="#FFB26E" stroke="black" stroke-width="1.2" stroke-linecap="round" stroke-linejoin="round"/>
<path d="M136.517 62.3487C133.104 49.5744 115.958 43.0592 98.2234 47.7965C80.4885 52.5338 68.8775 66.7312 72.2906 79.5092C75.7037 92.2835 92.8495 98.7987 110.584 94.0614C115.025 92.8762 119.082 91.0946 122.616 88.8924L135.145 97.0172L134.626 76.4766C136.993 71.9368 137.776 67.0458 136.521 62.3487H136.517Z" fill="white" stroke="black" stroke-width="1.2" stroke-linecap="round" stroke-linejoin="round"/>
<path d="M122.612 88.8926L122.781 95.4627L135.31 103.587L135.145 97.021L122.612 88.8926Z" fill="#FFB26E" stroke="black" stroke-width="1.2" stroke-linecap="round" stroke-linejoin="round"/>
<path d="M100.221 66.2157C100.148 66.0292 100.085 65.8755 100.023 65.7182C99.1489 63.5416 99.0977 61.4455 100.715 59.5359C103.308 56.474 108.986 56.1192 112.509 58.7604C114.221 60.0444 115.179 61.6357 115.827 63.366C116.547 65.2939 116.836 67.262 116.95 69.2411C117.154 72.9358 116.778 76.5793 116.042 80.1936C115.991 80.4424 115.955 80.6363 115.523 80.6399C97.9015 81.8252 92.9959 80.7789 89.9486 78.7084C87.4245 76.9927 86.3965 74.699 86.7733 71.564C87.3038 66.8011 92.5167 64.3318 97.2394 65.3524C98.2271 65.5646 99.1745 65.9085 100.228 66.2157H100.221Z" fill="#FFB26E"/>
<path d="M59.8564 247.602C66.6643 252.365 76.0475 250.712 80.8141 243.904L105.909 208.065L109.286 203.243L112.915 198.06L116.291 193.231L119.488 188.669L122.872 183.84L123.322 183.196C128.085 176.392 126.432 167.005 119.624 162.242C116.997 160.402 113.986 159.517 111.005 159.517C106.264 159.517 101.593 161.756 98.6696 165.937L97.9343 166.987L94.5432 171.823L91.3569 176.378L87.9695 181.221L84.3515 186.39L80.9604 191.226L56.1617 226.641C51.3914 233.449 53.0486 242.832 59.8564 247.599V247.602Z" fill="#FFB26E"/>
<path d="M113.65 159.759C122.243 164.584 123.534 173.63 119.931 180.738C116.328 187.842 102.43 213.036 102.43 213.036L122.868 183.844C122.868 183.844 127.54 178.938 126.04 171.297C124.537 163.651 118.387 161.891 116.949 160.754C115.512 159.616 113.646 159.759 113.646 159.759H113.65Z" fill="white"/>
<path d="M59.8564 247.602C66.6643 252.365 76.0475 250.712 80.8141 243.904L105.909 208.065L109.286 203.243L112.915 198.06L116.291 193.231L119.488 188.669L122.872 183.84L123.322 183.196C128.085 176.392 126.432 167.005 119.624 162.242C116.997 160.402 113.986 159.517 111.005 159.517C106.264 159.517 101.593 161.756 98.6696 165.937L97.9343 166.987L94.5432 171.823L91.3569 176.378L87.9695 181.221L84.3515 186.39L80.9604 191.226L56.1617 226.641C51.3914 233.449 53.0486 242.832 59.8564 247.599V247.602Z" stroke="black" stroke-width="1.2" stroke-linecap="round" stroke-linejoin="round"/>
<path d="M101.439 214.452C91.3277 211.646 81.3445 204.926 76.6584 197.372L56.1616 226.645C56.1616 226.645 48.6624 239.719 59.8564 247.602C73.3514 257.106 82.7419 241.153 82.7419 241.153L101.443 214.448L101.439 214.452Z" fill="black"/>
<path d="M41.4702 236.85C41.4702 245.016 45.3223 253.049 52.5142 258.086C64.2277 266.288 80.3749 263.442 88.5765 251.728L101.435 233.357C99.5547 232.768 97.5902 232.036 95.5636 231.162L83.8245 247.927C77.5435 256.894 65.1861 259.078 56.2163 252.796C47.2501 246.515 45.0662 234.154 51.3473 225.188L63.518 207.808C62.0438 206.078 60.7524 204.366 59.6733 202.716L46.1527 222.028C42.9847 226.549 41.4666 231.729 41.4666 236.858L41.4702 236.85Z" fill="white"/>
<path d="M58.4917 207.249C44.0712 228.488 44.4187 235.449 44.9309 241.591C45.443 247.734 50.9266 260.914 65.2045 262.772C79.486 264.631 41.847 263.621 40.5045 241.778C39.1583 219.935 57.5003 205.921 57.5003 205.921L58.4881 207.252L58.4917 207.249Z" fill="#FFB26E"/>
<path d="M41.4702 236.85C41.4702 245.016 45.3223 253.049 52.5142 258.086C64.2277 266.288 80.3749 263.442 88.5765 251.728L101.435 233.357C99.5547 232.768 97.5902 232.036 95.5636 231.162L83.8245 247.927C77.5435 256.894 65.1861 259.078 56.2163 252.796C47.2501 246.515 45.0662 234.154 51.3473 225.188L63.518 207.808C62.0438 206.078 60.7524 204.366 59.6733 202.716L46.1527 222.028C42.9847 226.549 41.4666 231.729 41.4666 236.858L41.4702 236.85Z" stroke="black" stroke-width="1.2" stroke-linecap="round" stroke-linejoin="round"/>
<path d="M56.487 204.428C57.5661 206.078 58.8575 207.79 60.3317 209.521C61.6743 211.097 63.1741 212.696 64.8093 214.295C68.1565 217.561 72.0818 220.821 76.4606 223.886C80.8394 226.948 85.2475 229.527 89.4617 231.554C90.4458 232.026 91.4189 232.468 92.3773 232.878C94.4039 233.752 96.3684 234.484 98.2487 235.073C106.637 237.718 113.302 237.509 115.863 233.851C119.272 228.982 114.462 219.387 104.676 209.828L102.434 213.033C103.334 213.907 104.182 214.77 104.976 215.623C106.41 217.166 107.668 218.673 108.722 220.111C112.201 224.826 113.54 228.839 111.949 231.108C110.357 233.376 106.136 233.493 100.509 231.843C98.6767 231.309 96.7013 230.581 94.6125 229.685C93.6613 229.275 92.6919 228.832 91.7005 228.349C87.5851 226.359 83.1551 223.758 78.7214 220.652C74.284 217.547 70.3332 214.276 67.0518 211.094C65.3763 209.466 63.8765 207.867 62.5778 206.316C61.0341 204.476 59.772 202.713 58.8282 201.081C56.8491 197.65 56.2894 194.793 57.5369 193.011C58.7843 191.226 61.6633 190.773 65.5629 191.464C67.4066 191.79 69.4771 192.368 71.7123 193.183C73.6292 193.878 75.6631 194.742 77.7812 195.77L80.0237 192.565C67.6956 186.639 57.0284 185.399 53.619 190.268C51.4058 193.428 52.6605 198.583 56.487 204.428V204.428Z" fill="white"/>
<path d="M88.8729 231.268C77.5655 226.231 58.8686 207.326 56.6078 199.677C54.7202 193.282 57.4346 192.883 58.6527 191.987C60.5769 190.568 65.5594 191.468 65.5594 191.468L77.7777 195.773L80.0201 192.569C80.0201 192.569 70.4064 187.242 62.5963 187.22C54.7861 187.198 54.3251 188.867 53.4362 191.164C52.5473 193.465 50.6304 197.087 56.4834 204.428C62.3365 211.77 69.4517 218.951 78.502 225.28C87.5523 231.609 88.8729 231.268 88.8729 231.268V231.268Z" fill="#FFB26E"/>
<path d="M56.487 204.428C57.5661 206.078 58.8575 207.79 60.3317 209.521C61.6743 211.097 63.1741 212.696 64.8093 214.295C68.1565 217.561 72.0818 220.821 76.4606 223.886C80.8394 226.948 85.2475 229.527 89.4617 231.554C90.4458 232.026 91.4189 232.468 92.3773 232.878C94.4039 233.752 96.3684 234.484 98.2487 235.073C106.637 237.718 113.302 237.509 115.863 233.851C119.272 228.982 114.462 219.387 104.676 209.828L102.434 213.033C103.334 213.907 104.182 214.77 104.976 215.623C106.41 217.166 107.668 218.673 108.722 220.111C112.201 224.826 113.54 228.839 111.949 231.108C110.357 233.376 106.136 233.493 100.509 231.843C98.6767 231.309 96.7013 230.581 94.6125 229.685C93.6613 229.275 92.6919 228.832 91.7005 228.349C87.5851 226.359 83.1551 223.758 78.7214 220.652C74.284 217.547 70.3332 214.276 67.0518 211.094C65.3763 209.466 63.8765 207.867 62.5778 206.316C61.0341 204.476 59.772 202.713 58.8282 201.081C56.8491 197.65 56.2894 194.793 57.5369 193.011C58.7843 191.226 61.6633 190.773 65.5629 191.464C67.4066 191.79 69.4771 192.368 71.7123 193.183C73.6292 193.878 75.6631 194.742 77.7812 195.77L80.0237 192.565C67.6956 186.639 57.0284 185.399 53.619 190.268C51.4058 193.428 52.6605 198.583 56.487 204.428V204.428Z" stroke="black" stroke-width="1.2" stroke-linecap="round" stroke-linejoin="round"/>
<path d="M100.067 224.735L96.1526 221.995L97.9158 219.478L101.826 222.218L105.803 216.537L106.93 214.931C107.255 214.47 107.687 214.123 108.166 213.907C108.257 213.863 108.353 213.83 108.451 213.797C109.337 213.501 110.357 213.614 111.177 214.199C112.007 214.792 112.45 215.725 112.45 216.676C112.45 217.221 112.307 217.759 112.003 218.253C111.974 218.3 111.941 218.348 111.908 218.395C111.908 218.399 111.905 218.41 111.901 218.414L109.717 221.538L106.798 225.704L112.527 229.714C112.296 230.892 111.645 231.675 110.719 232.198L105.035 228.218L103.699 230.127L102.185 232.296C102.145 232.289 102.112 232.278 102.072 232.267C101.837 232.212 101.6 232.15 101.358 232.084C101.076 232.011 100.798 231.927 100.506 231.846C100.275 231.781 100.045 231.707 99.8108 231.634C99.5949 231.568 99.3754 231.495 99.1486 231.422C98.8999 231.342 98.6438 231.254 98.3841 231.162C98.1426 231.082 97.9012 230.99 97.6524 230.899C97.5281 230.855 97.4073 230.811 97.2793 230.76C97.0927 230.694 96.9062 230.621 96.7196 230.548C96.5294 230.475 96.3428 230.402 96.1489 230.325L97.7988 227.965L100.06 224.735H100.067Z" fill="white"/>
<path d="M112.033 215.143C108.989 213.487 99.3762 227.487 97.2591 230.647L96.2793 229.839L99.8876 224.684L96.2793 222.107L97.8257 219.529L101.949 222.107L108.166 213.907L110.043 213.64L112.033 215.143Z" fill="#FFB26E"/>
<path d="M100.067 224.735L96.1526 221.995L97.9158 219.478L101.826 222.218L105.803 216.537L106.93 214.931C107.255 214.47 107.687 214.123 108.166 213.907C108.257 213.863 108.353 213.83 108.451 213.797C109.337 213.501 110.357 213.614 111.177 214.199C112.007 214.792 112.45 215.725 112.45 216.676C112.45 217.221 112.307 217.759 112.003 218.253C111.974 218.3 111.941 218.348 111.908 218.395C111.908 218.399 111.905 218.41 111.901 218.414L109.717 221.538L106.798 225.704L112.527 229.714C112.296 230.892 111.645 231.675 110.719 232.198L105.035 228.218L103.699 230.127L102.185 232.296C102.145 232.289 102.112 232.278 102.072 232.267C101.837 232.212 101.6 232.15 101.358 232.084C101.076 232.011 100.798 231.927 100.506 231.846C100.275 231.781 100.045 231.707 99.8108 231.634C99.5949 231.568 99.3754 231.495 99.1486 231.422C98.8999 231.342 98.6438 231.254 98.3841 231.162C98.1426 231.082 97.9012 230.99 97.6524 230.899C97.5281 230.855 97.4073 230.811 97.2793 230.76C97.0927 230.694 96.9062 230.621 96.7196 230.548C96.5294 230.475 96.3428 230.402 96.1489 230.325L97.7988 227.965L100.06 224.735H100.067Z" stroke="black" stroke-width="1.2" stroke-linecap="round" stroke-linejoin="round"/>
<path d="M62.6147 198.51L56.9336 194.533C57.1677 193.341 57.7457 192.499 58.6529 191.987L64.3743 195.993L67.2899 191.83L68.7495 189.748L69.5836 188.56L69.6567 188.45C70.6225 187.071 72.5284 186.745 73.9039 187.718C74.7379 188.311 75.1842 189.247 75.1842 190.195C75.1842 190.275 75.1806 190.363 75.1696 190.444C75.144 190.795 75.0525 191.135 74.9025 191.464C74.8294 191.629 74.7416 191.782 74.6355 191.936L73.3259 193.802L69.3531 199.476L73.2637 202.216L71.5004 204.732L67.5899 201.992L65.7681 204.597L63.6719 207.582C63.2915 207.158 62.9257 206.737 62.5745 206.316C61.4953 205.029 60.5515 203.781 59.7614 202.589L62.0148 199.362L62.6111 198.51H62.6147Z" fill="white"/>
<path d="M73.4356 187.451C69.3787 191.544 60.5588 203.817 60.5588 203.817L59.9882 202.27L62.6147 198.509L56.9336 194.533L57.3031 193.421L58.6529 191.987L64 195.5L67.7215 191.215C67.7215 191.215 69.7994 187.26 71.3614 187.26C72.9235 187.26 73.4356 187.447 73.4356 187.447V187.451Z" fill="#FFB26E"/>
<path d="M62.6147 198.51L56.9336 194.533C57.1677 193.341 57.7457 192.499 58.6529 191.987L64.3743 195.993L67.2899 191.83L68.7495 189.748L69.5836 188.56L69.6567 188.45C70.6225 187.071 72.5284 186.745 73.9039 187.718C74.7379 188.311 75.1842 189.247 75.1842 190.195C75.1842 190.275 75.1806 190.363 75.1696 190.444C75.144 190.795 75.0525 191.135 74.9025 191.464C74.8294 191.629 74.7416 191.782 74.6355 191.936L73.3259 193.802L69.3531 199.476L73.2637 202.216L71.5004 204.732L67.5899 201.992L65.7681 204.597L63.6719 207.582C63.2915 207.158 62.9257 206.737 62.5745 206.316C61.4953 205.029 60.5515 203.781 59.7614 202.589L62.0148 199.362L62.6111 198.51H62.6147Z" stroke="black" stroke-width="1.2" stroke-linecap="round" stroke-linejoin="round"/>
<path d="M80.9604 191.23C85.8551 199.051 96.1382 206.002 105.909 208.068L109.286 203.247C109.095 203.17 108.894 203.112 108.678 203.082C99.3098 201.747 88.5731 194.511 84.7357 186.953C84.6333 186.745 84.5016 186.555 84.3516 186.39L80.9604 191.226V191.23Z" fill="black"/>
<path d="M87.9695 181.221C92.8605 189.042 103.144 195.993 112.915 198.063L116.291 193.235C116.101 193.158 115.9 193.107 115.687 193.074C106.319 191.738 95.5748 184.502 91.7447 176.945C91.635 176.736 91.5069 176.546 91.3569 176.378L87.9695 181.221V181.221Z" fill="black"/>
<path d="M94.5432 171.827C99.4378 179.648 109.717 186.602 119.488 188.673L122.872 183.844C122.682 183.767 122.473 183.709 122.265 183.68C112.9 182.348 102.16 175.116 98.3221 167.554C98.2124 167.346 98.0843 167.156 97.938 166.987L94.5469 171.823L94.5432 171.827Z" fill="black"/>
<path d="M86.1877 202.801L94.7771 190.915C94.6271 190.447 94.5467 189.949 94.5467 189.43C94.5467 186.752 96.705 184.579 99.3755 184.554L108.96 171.293L113.65 174.684L104.065 187.941C104.215 188.409 104.296 188.907 104.296 189.426C104.296 192.104 102.137 194.277 99.4669 194.303L90.8739 206.188L86.1841 202.797L86.1877 202.801Z" fill="#FFB26E"/>
</g>
<path d="M52.9935 215.743V251.652C52.9935 253.36 53.6703 254.996 54.8775 256.203L76.7973 278.123C78.0045 279.33 79.6397 280.006 81.348 280.006H117.257C137.289 290.231 159.966 296 184 296C208.034 296 230.715 290.231 250.743 280.006H286.652C288.36 280.006 289.996 279.33 291.199 278.123L313.123 256.203C314.326 254.996 315.006 253.36 315.006 251.652V215.743C325.231 195.715 331 173.027 331 149C331 124.973 325.235 102.285 315.006 82.2566V46.3444C315.006 44.6397 314.326 43.0045 313.123 41.7973L291.199 19.8775C289.992 18.6703 288.36 17.9935 286.652 17.9935H250.743C230.715 7.76894 208.034 2 184 2C159.966 2 137.289 7.76894 117.257 17.9935H81.348C79.6433 17.9935 78.0045 18.6703 76.7973 19.8775L54.8775 41.7973C53.6703 43.0045 52.9935 44.6397 52.9935 46.3444V82.2566C42.7726 102.285 37 124.969 37 149C37 173.031 42.7726 195.715 52.9935 215.743Z" stroke="white" stroke-width="2" stroke-linecap="round" stroke-linejoin="round"/>
</svg>
